<svg xmlns="http://www.w3.org/2000/svg" viewBox="0 0 320 200" font-family="-apple-system, system-ui, sans-serif">
  <defs>
    <radialGradient id="faceFill" cx="50%" cy="40%" r="65%">
      <stop offset="0" stop-color="#2b2b2e"/>
      <stop offset="1" stop-color="#202022"/>
    </radialGradient>
  </defs>
  <rect width="320" height="200" fill="#1b1b1d"/>
  <circle cx="160" cy="80" r="50" fill="url(#faceFill)" stroke="rgba(255,255,255,0.06)" stroke-width="0.8"/>
  <circle cx="160" cy="80" r="44" fill="none" stroke="rgba(235,235,245,0.07)" stroke-width="0.8"/>
  <g stroke="rgba(235,235,245,0.5)" stroke-width="1.6" stroke-linecap="round">
    <line id="tk" x1="160" y1="32" x2="160" y2="39"/>
    <use href="#tk" transform="rotate(30 160 80)"/>
    <use href="#tk" transform="rotate(60 160 80)"/>
    <use href="#tk" transform="rotate(90 160 80)"/>
    <use href="#tk" transform="rotate(120 160 80)"/>
    <use href="#tk" transform="rotate(150 160 80)"/>
    <use href="#tk" transform="rotate(180 160 80)"/>
    <use href="#tk" transform="rotate(210 160 80)"/>
    <use href="#tk" transform="rotate(240 160 80)"/>
    <use href="#tk" transform="rotate(270 160 80)"/>
    <use href="#tk" transform="rotate(300 160 80)"/>
    <use href="#tk" transform="rotate(330 160 80)"/>
  </g>
  <rect x="157.6" y="50" width="4.8" height="38" rx="2.4" fill="#f5f5f7" transform="rotate(-55 160 80)"/>
  <rect x="158.6" y="38" width="2.8" height="50" rx="1.4" fill="#f5f5f7" transform="rotate(60 160 80)"/>
  <line x1="160" y1="90" x2="160" y2="34" stroke="#0a84ff" stroke-width="1.2" stroke-linecap="round" transform="rotate(30 160 80)"/>
  <circle cx="160" cy="80" r="3" fill="#f5f5f7"/>
  <circle cx="160" cy="80" r="1.3" fill="#0a84ff"/>
  <text x="160" y="180" fill="rgba(235,235,245,0.85)" font-size="17" font-weight="600" text-anchor="middle" letter-spacing="1">10:10</text>
</svg>
